<svg width="512" height="512" viewBox="0 0 512 512" fill="none" xmlns="http://www.w3.org/2000/svg">
<circle cx="256" cy="256" r="256" fill="black"/>
<path d="M103.931 205.935C102.732 205.211 102 203.923 102 202.522C102 174.699 102 135.43 102 123.543C102 121.986 103.59 120.961 104.923 121.767C129.035 136.34 296.96 237.833 408.652 305.339C409.85 306.063 410.556 307.346 410.556 308.746V387.713C410.556 389.27 408.855 390.23 407.522 389.424L103.931 205.935Z" fill="white"/>
<path d="M171.51 288.392C171.51 286.997 170.783 285.703 169.592 284.976L108.082 247.47C105.417 245.845 102 247.764 102 250.886V356.671C102 357.121 102.079 357.58 102.232 358.003C113.68 389.709 140.243 391.186 167.509 391.255C169.718 391.261 171.51 389.467 171.51 387.258V288.392Z" fill="white"/>
<path d="M348.128 231.354C346.893 230.639 346.132 229.32 346.132 227.892V124C346.132 121.791 347.929 119.992 350.136 120.067C392.808 121.51 408.097 145.949 410.496 158.662C410.539 158.888 410.556 159.109 410.556 159.339V260.559C410.556 263.64 407.219 265.564 404.552 264.021L348.128 231.354Z" fill="white"/>
<circle cx="256" cy="256" r="53" fill="black" stroke="white" stroke-width="6"/>
<path d="M231.795 260.189L232.072 246.411C232.072 243.632 232.011 241.152 231.888 238.969C231.795 236.757 231.519 235.269 231.058 234.504C230.627 233.71 230.197 233.2 229.767 232.973C229.336 232.718 228.906 232.519 228.476 232.377C228.045 232.236 227.799 232.165 227.738 232.165C227.246 232.051 227 231.3 227 229.911C227 228.493 227.061 227.615 227.184 227.274C237.882 225.091 245.966 224 251.438 224C264.502 224 274.646 226.906 281.87 232.718C287.957 237.594 291 244.454 291 253.3C291 260.387 289.171 266.582 285.513 271.883C281.855 277.156 276.814 281.168 270.389 283.918C263.995 286.639 256.648 288 248.349 288C243.799 288 239.542 287.646 235.576 286.937C233.548 286.171 232.395 284.215 232.118 281.068C231.903 278.63 231.795 274.959 231.795 270.054V260.189ZM245.951 243.902L245.49 269.757V272.649C245.49 278.063 246.028 281.168 247.104 281.961C248.21 282.132 249.394 282.217 250.654 282.217C251.915 282.217 253.605 282.174 255.726 282.089C257.847 281.976 260.107 281.366 262.504 280.26C264.933 279.155 267.161 277.567 269.19 275.498C271.219 273.428 272.833 270.678 274.032 267.248C275.231 263.789 275.83 260.089 275.83 256.149C275.83 252.18 275.338 248.75 274.354 245.858C273.402 242.966 272.141 240.571 270.573 238.671C269.037 236.772 267.254 235.17 265.225 233.866C261.352 231.399 257.371 230.166 253.282 230.166C249.194 230.166 246.381 230.365 244.844 230.761C245.582 233.738 245.951 237.268 245.951 241.35V243.902Z" fill="white"/>
</svg>
